# xmcd
#
# Track frame offsets: 
#        150
#        15710
#        31954
#        50068
#        67431
#        92459
#        119417
#        132354
#        148627
#        174156
#        191112
#        213934
#
# Disc length: 3194 seconds
#
# Revision: 0
# Processed by: cddbd v1.5.2PL0 Copyright (c) Steve Scherf et al.
# Submitted via: ExactAudioCopy v1.0b3
#
DISCID=b10c780c
DTITLE=Various Artist - Co Hoa
DYEAR=1985
DGENRE=
TTITLE0=Ngoc Lan - Thuyen khong ben do
TTITLE1=Huong Lan - Thuong vung hoa tuyen
TTITLE2=Nhu Mai - Buon xa nha
TTITLE3=Thanh Tuyen - Dem tien don
TTITLE4=Ngoc Minh - Muoi sau trang tron
TTITLE5=Bang Chau, Duy Quang - Co hoa
TTITLE6=Hai Ly - Rung xua
TTITLE7=Tuan Vu - Gio ve mien xuoi
TTITLE8=Thy Van - Tam anh ngay xua
TTITLE9=Kim Loan - Chuyen mot dem
TTITLE10=Luu Hong - Tien nguoi di
TTITLE11=Huong Lan - Ngon den dem
EXTD=
EXTT0=
EXTT1=
EXTT2=
EXTT3=
EXTT4=
EXTT5=
EXTT6=
EXTT7=
EXTT8=
EXTT9=
EXTT10=
EXTT11=
PLAYORDER=
